<svg width="25" height="24" viewBox="0 0 25 24" fill="none" xmlns="http://www.w3.org/2000/svg">
<path fill-rule="evenodd" clip-rule="evenodd" d="M5.18555 12C5.18555 11.5858 5.52133 11.25 5.93555 11.25L18.9355 11.25C19.3498 11.25 19.6855 11.5858 19.6855 12C19.6855 12.4142 19.3498 12.75 18.9355 12.75L5.93555 12.75C5.52133 12.75 5.18555 12.4142 5.18555 12Z" fill="#2A2E34"/>
<path fill-rule="evenodd" clip-rule="evenodd" d="M15.4052 7.46967C15.6981 7.17678 16.173 7.17678 16.4659 7.46967L20.1123 11.1161C20.6005 11.6043 20.6005 12.3957 20.1123 12.8839L16.4659 16.5303C16.173 16.8232 15.6981 16.8232 15.4052 16.5303C15.1123 16.2374 15.1123 15.7626 15.4052 15.4697L18.8749 12L15.4052 8.53033C15.1123 8.23744 15.1123 7.76256 15.4052 7.46967Z" fill="#2A2E34"/>
</svg>
