<svg width="59" height="28" viewBox="0 0 59 28" fill="none" xmlns="http://www.w3.org/2000/svg">
<path d="M33.9532 0.0239983C37.2172 0.0239983 39.8412 1.032 41.8252 3.048C43.8412 5.032 44.8492 7.816 44.8492 11.4V27H38.1292V12.312C38.1292 10.232 37.6012 8.648 36.5452 7.56C35.4892 6.44 34.0492 5.88 32.2252 5.88C30.4012 5.88 28.9452 6.44 27.8572 7.56C26.8012 8.648 26.2732 10.232 26.2732 12.312V27H19.5532V12.312C19.5532 10.232 19.0252 8.648 17.9692 7.56C16.9132 6.44 15.4732 5.88 13.6492 5.88C11.7932 5.88 10.3212 6.44 9.23319 7.56C8.17719 8.648 7.64919 10.232 7.64919 12.312V27H0.929188V0.407999H7.64919V3.624C8.51319 2.504 9.61719 1.624 10.9612 0.983997C12.3372 0.343998 13.8412 0.0239983 15.4732 0.0239983C17.5532 0.0239983 19.4092 0.471998 21.0412 1.368C22.6732 2.232 23.9372 3.48 24.8332 5.112C25.6972 3.576 26.9452 2.344 28.5772 1.416C30.2412 0.487998 32.0332 0.0239983 33.9532 0.0239983Z" fill="#021221"/>
<path d="M54.2021 27.336C52.9861 27.336 51.9781 26.968 51.1781 26.232C50.4101 25.464 50.0261 24.52 50.0261 23.4C50.0261 22.28 50.4101 21.352 51.1781 20.616C51.9781 19.848 52.9861 19.464 54.2021 19.464C55.3861 19.464 56.3621 19.848 57.1301 20.616C57.8981 21.352 58.2821 22.28 58.2821 23.4C58.2821 24.52 57.8981 25.464 57.1301 26.232C56.3621 26.968 55.3861 27.336 54.2021 27.336Z" fill="#F5A302"/>
</svg>
